<svg width="16" height="16" viewBox="0 0 16 16" fill="none" xmlns="http://www.w3.org/2000/svg">
<path d="M6.44684 12.6967C6.15394 12.9896 5.67907 12.9896 5.38618 12.6967L1.22991 8.54048L1.21966 8.53042C1.07148 8.38224 0.998266 8.18747 1.00003 7.99325C1.0017 7.80354 1.07491 7.61433 1.21967 7.46958L1.22981 7.45962L5.38618 3.30329C5.67907 3.01039 6.15394 3.0104 6.44684 3.30329C6.73973 3.59618 6.73973 4.07106 6.44683 4.36395L3.56076 7.25L14.25 7.25C14.6642 7.25 15 7.58579 15 8C15 8.41421 14.6642 8.75 14.25 8.75L3.56076 8.75L6.44683 11.636C6.73973 11.9289 6.73973 12.4038 6.44684 12.6967Z" fill="#F7F7F7"/>
</svg>
