<svg width="16" height="16" viewBox="0 0 16 16" fill="none" xmlns="http://www.w3.org/2000/svg">
<path fill-rule="evenodd" clip-rule="evenodd" d="M5.75 0C2.57436 0 0 2.57436 0 5.75C0 8.92564 2.57436 11.5 5.75 11.5C7.06745 11.5 8.28141 11.0569 9.25101 10.3117L14.7197 15.7803C15.0126 16.0732 15.4874 16.0732 15.7803 15.7803C16.0732 15.4874 16.0732 15.0126 15.7803 14.7197L10.3117 9.25101C11.0569 8.28141 11.5 7.06745 11.5 5.75C11.5 2.57436 8.92564 0 5.75 0ZM1.5 5.75C1.5 3.40279 3.40279 1.5 5.75 1.5C8.09721 1.5 10 3.40279 10 5.75C10 8.09721 8.09721 10 5.75 10C3.40279 10 1.5 8.09721 1.5 5.75Z" fill="#7685A0"/>
</svg>
